<svg id="sad-smiley" xmlns="http://www.w3.org/2000/svg" width="49.94" height="49.94" viewBox="0 0 49.94 49.94">
  <g id="그룹_26" data-name="그룹 26">
    <path id="패스_38" data-name="패스 38" d="M24.97,49.94A24.97,24.97,0,1,0,0,24.97,24.985,24.985,0,0,0,24.97,49.94Zm0-46.33A21.36,21.36,0,1,1,3.61,24.97,21.4,21.4,0,0,1,24.97,3.61Z"/>
    <path id="패스_39" data-name="패스 39" d="M140.338,148.516a2.858,2.858,0,1,0-2.016-.842A2.848,2.848,0,0,0,140.338,148.516Z" transform="translate(-122.889 -127.637)"/>
    <path id="패스_40" data-name="패스 40" d="M275.205,148.516a2.858,2.858,0,1,0-2.016-.842A2.8,2.8,0,0,0,275.205,148.516Z" transform="translate(-243.436 -127.637)"/>
    <path id="패스_41" data-name="패스 41" d="M127.621,264.088c.06-.181,1.234-4.061,7.822-4.061,6.8,0,8.725,4.122,8.785,4.272a1.821,1.821,0,0,0,1.655,1.113,1.442,1.442,0,0,0,.692-.15,1.777,1.777,0,0,0,.963-2.347c-.12-.271-2.8-6.5-12.124-6.5-9.507,0-11.252,6.5-11.312,6.769l1.745.451Z" transform="translate(-110.924 -229.19)"/>
  </g>
</svg>
