<svg id="smiling-face" xmlns="http://www.w3.org/2000/svg" width="99.11" height="99.11" viewBox="0 0 99.11 99.11">
  <g id="그룹_32" data-name="그룹 32">
    <path id="패스_53" data-name="패스 53" d="M49.555,99.11A49.555,49.555,0,1,0,0,49.555,49.585,49.585,0,0,0,49.555,99.11Zm0-91.945a42.39,42.39,0,1,1-42.39,42.39A42.477,42.477,0,0,1,49.555,7.165Z" fill="#457ae5"/>
    <path id="패스_54" data-name="패스 54" d="M143.145,154.144a5.672,5.672,0,1,0-4-1.672A5.651,5.651,0,0,0,143.145,154.144Z" transform="translate(-108.516 -112.709)" fill="#457ae5"/>
    <path id="패스_55" data-name="패스 55" d="M278.012,154.144a5.672,5.672,0,1,0-4-1.672A5.549,5.549,0,0,0,278.012,154.144Z" transform="translate(-214.963 -112.709)" fill="#457ae5"/>
    <path id="패스_56" data-name="패스 56" d="M146.832,285.7c18.449,0,23.822-12.419,24.061-12.9a3.624,3.624,0,0,0-1.911-4.717,3.488,3.488,0,0,0-4.657,1.911c-.179.358-3.941,8.538-17.434,8.538-13.075,0-15.4-7.7-15.523-8.06v.06l-6.985,1.731C124.562,272.8,127.965,285.7,146.832,285.7Z" transform="translate(-98.173 -211.364)" fill="#457ae5"/>
  </g>
</svg>
